{"title":"Cosmos A Space Time Odyssey S01E03 HDTV x264 AAC E-Subs [GWC].mp","uid":9817661,"size":122026589,"categoryP":"video","categoryS":"tv_shows","magnet":"?xt=urn:btih:3e97017a2d273d21ba11ba9ecb4916af1c6e20bf&amp;dn=Cosmos+A+Space+Time+Odyssey+S01E03+HDTV+x264+AAC+E-Subs+%5BGWC%5D.mp&amp;tr=udp%3A%2F%2Ftracker.openbittorrent.com%3A80&amp;tr=udp%3A%2F%2Fopen.demonii.com%3A1337&amp;tr=udp%3A%2F%2Ftracker.coppersurfer.tk%3A6969&amp;tr=udp%3A%2F%2Fexodus.desync.com%3A6969","seeders":1,"leechers":0,"uploader":"canc232","files":1,"time":1395641449,"description":"Cosmos A Space Time Odyssey S01E03 HDTV x264 AAC E-Subs [GWC] \n\n\nSUMMARY :\nA documentary series that explores how we discovered the laws of nature and found our coordinates in space and time. \n\n\nSCREENS : &lt;a href=&quot;\nhttp://i.imgur.com/APZXJNc.jpg&quot; rel=&quot;nofollow&quot; target=&quot;_NEW&quot;&gt;\nhttp://i.imgur.com/APZXJNc.jpg&lt;/a&gt; &lt;a href=&quot;\nhttp://i.imgur.com/fXhTgGM.jpg&quot; rel=&quot;nofollow&quot; target=&quot;_NEW&quot;&gt;\nhttp://i.imgur.com/fXhTgGM.jpg&lt;/a&gt; &lt;a href=&quot;\nhttp://i.imgur.com/9f5n2mA.jpg&quot; rel=&quot;nofollow&quot; target=&quot;_NEW&quot;&gt;\nhttp://i.imgur.com/9f5n2mA.jpg&lt;/a&gt;\n\n\nMEDIA INFO :\nGeneral \nFormat : MPEG-4 \nFormat profile : Base Media \nFile size : 116 MiB \nDuration : 43mn 8s \nOverall bit rate mode : Variable \nOverall bit rate : 377 Kbps \n\nVideo \nFormat : AVC \nFormat profile : &lt;a class=&quot;__cf_email__&quot; href=&quot;/cdn-cgi/l/email-protection&quot; data-cfemail=&quot;81c9e8e6e9c1cdb2afb1&quot;&gt;[email&amp;#160;protected]&lt;/a&gt;&lt;script cf-hash='f9e31' type=&quot;text/javascript&quot;&gt;\n/* &lt;![CDATA[ */!function(){try{var t=&quot;currentScript&quot;in document?document.currentScript:function(){for(var t=document.getElementsByTagName(&quot;script&quot;),e=t.length;e--;)if(t[e].getAttribute(&quot;cf-hash&quot;))return t[e]}();if(t&amp;&amp;t.previousSibling){var e,r,n,i,c=t.previousSibling,a=c.getAttribute(&quot;data-cfemail&quot;);if(a){for(e=&quot;&quot;,r=parseInt(a.substr(0,2),16),n=2;a.length-n;n+=2)i=parseInt(a.substr(n,2),16)^r,e+=String.fromCharCode(i);e=document.createTextNode(e),c.parentNode.replaceChild(e,c)}}}catch(u){}}();/* ]]&gt; */&lt;/script&gt; \nFormat settings, CABAC : Yes \nFormat settings, ReFrames : 4 frames \nDuration : 43mn 8s \nBit rate : 314 Kbps \nMaximum bit rate : 1 729 Kbps \nWidth : 720 pixels \nHeight : 404 pixels \nDisplay aspect ratio : 16:9 \nFrame rate : 23.976 fps \nStream size : 96.8 MiB (83%) \nTitle : Cosmos A Space Time Odyssey S01E03 HDTV x264 AAC E-Subs [GWC] \nWriting library : x264 core\n\nAudio \nFormat : AAC \nFormat profile : HE-AAC / LC \nDuration : 43mn 8s \nBit rate mode : Variable \nChannel(s) : 2 channels \nSampling rate : 48.0 KHz / 24.0 KHz \nStream size : 18.5 MiB (16%) \nLanguage : English \n\nText \nFormat : Timed Text \nTitle : English Subtitle by n17t01 \nLanguage : English ","torrent":{"xt":"urn:btih:3e97017a2d273d21ba11ba9ecb4916af1c6e20bf","amp;dn":"Cosmos+A+Space+Time+Odyssey+S01E03+HDTV+x264+AAC+E-Subs+%5BGWC%5D.mp","amp;tr":["udp%3A%2F%2Ftracker.openbittorrent.com%3A80","udp%3A%2F%2Fopen.demonii.com%3A1337","udp%3A%2F%2Ftracker.coppersurfer.tk%3A6969","udp%3A%2F%2Fexodus.desync.com%3A6969"],"infoHash":"3e97017a2d273d21ba11ba9ecb4916af1c6e20bf","infoHashBuffer":{"type":"Buffer","data":[62,151,1,122,45,39,61,33,186,17,186,158,203,73,22,175,28,110,32,191]},"announce":[],"urlList":[]}}